# xmcd CD database file
#
# Track frame offsets:
#	150
#	15076
#	30726
#	44997
#	55778
#	71813
#	82385
#	94328
#	111167
#	128327
#
# Disc length: 1862 seconds
#
# Revision: 0
# Processed by: cddbd v1.4PL0 Copyright (c) Steve Scherf et al.
# Submitted via: CDex 1.51
#
DISCID=8607440a
DTITLE=Various Artist - Sax for Christmas
DYEAR=1900
DGENRE=Jazz
TTITLE0=Joy to the World
TTITLE1=It Came Upon A Midnight Clear
TTITLE2=O Come All Ye Faithful
TTITLE3=We Three Kings
TTITLE4=Silent Night
TTITLE5=Jingle Bells
TTITLE6=The Holly and The Ivy
TTITLE7=Ave Maria
TTITLE8=Braham's Lullaby
TTITLE9=Good King Wenceslas
EXTD=
EXTT0=
EXTT1=
EXTT2=
EXTT3=
EXTT4=
EXTT5=
EXTT6=
EXTT7=
EXTT8=
EXTT9=
PLAYORDER=
